<?xml version="1.0" standalone="no"?>
<!DOCTYPE svg PUBLIC "-//W3C//DTD SVG 20010904//EN"
 "http://www.w3.org/TR/2001/REC-SVG-20010904/DTD/svg10.dtd">
<svg version="1.0" xmlns="http://www.w3.org/2000/svg"
 width="133.000000pt" height="298.000000pt" viewBox="0 0 133.000000 298.000000"
 preserveAspectRatio="xMidYMid meet">

<g transform="translate(0.000000,298.000000) scale(0.100000,-0.100000)"
fill="#000000" stroke="none">
<path d="M0 2387 l0 -593 103 -12 c56 -7 166 -12 244 -12 132 0 143 1 156 20
13 18 15 19 21 5 12 -31 6 -63 -11 -68 -14 -4 -12 -5 5 -6 20 -1 22 3 22 55 0
34 -4 53 -10 49 -16 -10 -12 26 9 91 11 32 18 60 16 63 -3 2 -7 -4 -11 -13 -3
-9 -12 -16 -20 -16 -8 0 -14 -5 -14 -12 0 -6 -2 -9 -5 -6 -3 3 2 22 11 44 15
35 37 105 50 159 3 11 -4 3 -16 -17 -11 -21 -30 -42 -43 -48 l-22 -11 23 20
c14 12 22 31 22 51 0 17 7 38 15 47 9 8 15 17 13 18 -7 7 -57 -8 -53 -15 3 -5
1 -11 -5 -15 -17 -11 -22 42 -6 72 14 26 15 26 16 6 0 -13 4 -23 9 -23 6 0 6
12 1 29 -4 16 -6 32 -3 34 2 3 -1 15 -7 27 -7 14 -9 36 -5 59 7 34 8 35 15 11
5 -14 12 -47 16 -75 4 -27 9 -42 11 -32 3 9 8 17 13 17 15 0 18 -39 3 -59 -12
-19 -12 -21 2 -21 9 0 13 5 10 10 -3 6 3 10 14 10 12 0 21 -6 21 -13 0 -17 38
-39 52 -31 8 5 9 2 5 -9 -4 -11 -1 -17 8 -17 10 0 15 11 15 35 0 19 4 35 9 35
6 0 7 -16 4 -35 -5 -29 -2 -36 16 -43 13 -4 22 -12 22 -17 0 -20 32 -76 48
-85 12 -6 20 -3 29 10 17 28 62 5 62 -33 0 -16 -4 -26 -10 -22 -6 3 -7 -1 -4
-9 4 -9 0 -18 -9 -22 -8 -3 -22 -23 -32 -44 -12 -26 -22 -37 -32 -33 -11 4
-13 -1 -7 -23 9 -36 10 -38 28 -31 8 3 17 23 21 45 4 24 17 49 32 63 l26 24
-12 -22 c-6 -13 -17 -23 -22 -23 -6 0 -9 -7 -6 -15 4 -8 2 -17 -3 -20 -6 -4
-10 -17 -10 -30 0 -15 -7 -26 -21 -30 -19 -6 -21 -13 -17 -72 4 -59 2 -64 -15
-59 -10 2 -33 -5 -51 -17 -19 -12 -42 -27 -52 -34 -19 -12 -19 -13 0 -27 18
-15 18 -16 -8 -27 -14 -7 -26 -16 -26 -21 0 -13 13 -9 38 11 23 20 29 41 12
41 -5 0 -10 5 -10 11 0 6 6 9 14 6 8 -3 17 0 19 7 4 9 15 12 34 8 25 -5 27 -4
14 11 -9 11 -9 17 -2 17 6 0 17 -15 24 -32 l14 -33 1 30 c4 71 7 95 14 95 11
0 20 -39 12 -51 -4 -8 -3 -9 5 -5 8 5 10 19 6 37 -8 34 2 39 15 7 5 -13 9 -17
9 -8 1 13 29 15 203 12 145 -2 205 -6 210 -15 6 -9 8 -9 8 1 0 6 9 12 20 12
20 0 20 7 20 620 l0 620 -665 0 -665 0 0 -593z m510 223 c0 -5 -4 -10 -10 -10
-5 0 -10 5 -10 10 0 6 5 10 10 10 6 0 10 -4 10 -10z m20 -56 c0 -2 -17 -4 -37
-3 -29 0 -33 2 -18 8 18 7 55 4 55 -5z m-15 -71 c3 -13 2 -23 -4 -23 -5 0 -8
-9 -6 -20 2 -11 0 -22 -6 -25 -5 -4 -9 8 -9 24 0 18 5 31 13 32 9 0 9 2 -1 6
-6 2 -10 9 -6 14 3 5 0 9 -6 9 -6 0 -8 5 -4 11 8 13 19 2 29 -28z m135 -162
c-20 -4 -42 -11 -50 -15 -8 -4 -6 0 4 8 11 9 34 15 50 15 31 -1 31 -1 -4 -8z
m26 -27 c16 -13 16 -15 2 -10 -18 5 -21 -13 -4 -25 11 -9 -12 -49 -28 -49 -14
0 -28 35 -18 45 3 3 7 13 8 21 2 12 -4 10 -24 -7 -21 -19 -23 -20 -12 -4 16
23 41 45 50 45 3 0 15 -7 26 -16z m-166 -454 c0 -5 -2 -10 -4 -10 -3 0 -8 5
-11 10 -3 6 -1 10 4 10 6 0 11 -4 11 -10z m-18 -46 c-9 -16 -10 -14 -9 8 1 15
6 23 11 18 4 -4 4 -16 -2 -26z m345 20 c-3 -3 -12 -4 -19 -1 -8 3 -5 6 6 6 11
1 17 -2 13 -5z m-7 -23 c0 -6 -4 -13 -10 -16 -5 -3 -10 1 -10 9 0 9 5 16 10
16 6 0 10 -4 10 -9z m20 -6 c0 -8 -4 -15 -10 -15 -5 0 -7 7 -4 15 4 8 8 15 10
15 2 0 4 -7 4 -15z m24 -10 c-4 -8 -8 -15 -10 -15 -2 0 -4 7 -4 15 0 8 4 15
10 15 5 0 7 -7 4 -15z"/>
<path d="M645 2240 c-3 -5 -1 -10 4 -10 6 0 11 5 11 10 0 6 -2 10 -4 10 -3 0
-8 -4 -11 -10z"/>
<path d="M639 2113 c-13 -16 -12 -17 4 -4 9 7 17 15 17 17 0 8 -8 3 -21 -13z"/>
<path d="M619 2043 l-24 -28 28 24 c25 23 32 31 24 31 -2 0 -14 -12 -28 -27z"/>
<path d="M731 2005 c17 -40 33 -57 24 -25 -4 14 -14 32 -22 40 -13 13 -13 11
-2 -15z"/>
<path d="M614 1748 c-11 -13 -28 -34 -39 -47 -20 -24 -20 -24 0 -18 20 7 20 7
1 -8 -11 -8 -23 -15 -28 -15 -4 0 -5 -6 -2 -14 3 -8 1 -17 -5 -21 -6 -3 -11
-12 -11 -18 0 -7 14 3 30 22 28 32 34 44 31 64 -1 4 11 23 25 42 29 39 28 47
-2 13z"/>
<path d="M505 1750 c3 -5 8 -10 11 -10 2 0 4 5 4 10 0 6 -5 10 -11 10 -5 0 -7
-4 -4 -10z"/>
<path d="M495 1701 c-6 -11 13 -26 22 -17 4 3 1 6 -6 6 -7 0 -9 5 -6 10 3 6 4
10 1 10 -3 0 -7 -4 -11 -9z"/>
<path d="M527 1691 c3 -12 10 -21 15 -21 13 0 6 32 -9 37 -7 3 -9 -3 -6 -16z"/>
<path d="M546 1591 c-10 -11 -16 -28 -14 -38 3 -14 8 -11 22 15 20 40 17 50
-8 23z"/>
<path d="M620 1570 c-9 -6 -10 -10 -3 -10 6 0 15 5 18 10 8 12 4 12 -15 0z"/>
<path d="M780 1570 c0 -5 5 -10 11 -10 5 0 7 5 4 10 -3 6 -8 10 -11 10 -2 0
-4 -4 -4 -10z"/>
<path d="M548 1536 c-20 -15 -23 -26 -8 -26 5 0 14 9 20 20 12 23 11 24 -12 6z"/>
<path d="M576 1525 c-9 -14 -23 -25 -31 -25 -8 0 -15 -4 -15 -10 0 -17 15 -11
37 13 22 25 37 47 30 47 -3 0 -12 -11 -21 -25z"/>
<path d="M690 1491 c0 -5 5 -13 10 -16 6 -3 10 -2 10 4 0 5 -4 13 -10 16 -5 3
-10 2 -10 -4z"/>
<path d="M800 1418 c0 -21 8 -21 -308 -27 -28 -1 -41 -5 -36 -12 3 -6 17 -8
29 -5 13 3 83 6 157 5 73 0 140 0 149 0 11 0 18 -11 21 -29 4 -23 0 -30 -16
-33 -13 -3 -8 -5 12 -6 28 -1 32 2 24 15 -5 9 -7 24 -5 33 2 9 -3 30 -11 46
-11 20 -16 24 -16 13z"/>
<path d="M638 1339 c-21 -12 -24 -29 -4 -29 7 0 16 9 19 20 3 11 4 20 4 20 -1
0 -10 -5 -19 -11z"/>
<path d="M544 1329 c-3 -6 -1 -16 4 -21 8 -8 11 -5 9 11 -1 24 -3 25 -13 10z"/>
<path d="M460 1316 c0 -9 7 -16 16 -16 17 0 14 22 -4 28 -7 2 -12 -3 -12 -12z"/>
<path d="M426 1308 c3 -4 9 -8 15 -8 5 0 9 4 9 8 0 5 -7 9 -15 9 -8 0 -12 -4
-9 -9z"/>
<path d="M728 1313 c7 -3 16 -2 19 1 4 3 -2 6 -13 5 -11 0 -14 -3 -6 -6z"/>
<path d="M468 1272 c-60 -3 -63 -6 -45 -52 3 -8 8 -22 10 -30 4 -10 6 -7 6 7
1 24 -15 22 206 24 61 1 127 1 147 0 l37 -1 6 -57 c4 -32 9 -70 11 -85 2 -16
0 -28 -6 -28 -6 0 -8 -4 -5 -10 6 -10 -10 -14 -53 -12 -14 1 -22 -4 -19 -11 2
-7 11 -11 21 -9 9 2 16 -2 16 -8 0 -5 5 -10 11 -10 6 0 9 7 5 15 -3 9 0 15 9
15 10 0 15 -11 15 -32 1 -18 7 -44 16 -58 l15 -25 -6 30 c-3 17 -6 81 -6 144
-1 83 2 115 11 121 10 6 11 17 4 42 l-10 33 -169 0 c-94 0 -196 -1 -227 -3z
m-18 -16 c0 -11 -19 -15 -25 -6 -3 5 1 10 9 10 9 0 16 -2 16 -4z m92 -5 c-14
-8 -71 -5 -80 4 -3 3 17 5 44 5 30 0 44 -3 36 -9z m306 3 c-7 -7 -249 -6 -256
1 -3 3 55 5 128 5 73 0 131 -3 128 -6z"/>
<path d="M531 1178 c0 -18 3 -27 6 -20 2 6 11 12 18 12 7 0 16 -6 19 -12 3 -7
4 1 3 17 -1 23 -7 31 -24 33 -20 3 -23 -1 -22 -30z"/>
<path d="M608 1205 c-9 -10 3 -45 14 -39 5 3 16 0 24 -7 14 -11 15 -9 12 17
-2 20 -9 30 -23 32 -12 2 -24 0 -27 -3z"/>
<path d="M680 1188 c0 -19 6 -23 31 -24 25 -1 30 2 27 20 -2 15 -11 22 -30 24
-24 3 -28 0 -28 -20z"/>
<path d="M762 1203 c-16 -6 3 -33 24 -33 8 0 14 -4 14 -10 0 -5 -5 -10 -12
-10 -6 0 -9 -2 -6 -5 9 -9 35 5 35 20 0 8 -3 14 -6 13 -28 -3 -42 4 -37 17 3
8 4 15 3 14 -1 0 -8 -3 -15 -6z"/>
<path d="M480 1181 c7 -14 6 -21 -2 -23 -7 -3 -6 -7 5 -11 13 -5 17 -1 17 17
0 14 6 27 13 29 6 3 -1 6 -16 6 -24 1 -26 -1 -17 -18z"/>
<path d="M478 1118 c15 -15 16 -32 2 -23 -5 3 -10 2 -10 -3 0 -6 7 -12 15 -16
11 -4 15 2 15 24 0 22 -5 30 -17 30 -13 0 -14 -3 -5 -12z"/>
<path d="M786 1115 c-11 -8 -16 -18 -13 -22 4 -3 7 -3 7 2 0 4 6 2 14 -4 10
-8 16 -9 21 -1 3 5 -1 10 -10 10 -9 0 -13 5 -10 10 4 6 11 8 16 5 5 -4 9 -1 9
4 0 15 -11 13 -34 -4z"/>
<path d="M620 1107 c0 -8 7 -14 15 -14 8 0 15 6 15 14 0 7 -7 13 -15 13 -8 0
-15 -6 -15 -13z"/>
<path d="M770 1069 c0 -5 5 -7 10 -4 6 3 10 8 10 11 0 2 -4 4 -10 4 -5 0 -10
-5 -10 -11z"/>
<path d="M435 1049 c-4 -6 67 -11 165 -11 111 -1 220 5 220 11 0 8 -381 8
-385 0z"/>
<path d="M430 1004 c0 -14 3 -15 18 -3 9 7 19 15 21 16 2 2 -5 3 -17 3 -14 0
-22 -6 -22 -16z"/>
<path d="M440 980 c-9 -6 -10 -10 -3 -10 6 0 15 5 18 10 8 12 4 12 -15 0z"/>
<path d="M770 970 c0 -11 4 -20 10 -20 5 0 7 6 4 14 -4 10 2 12 20 9 14 -3 26
-1 26 3 0 5 -14 10 -30 11 -24 2 -30 -2 -30 -17z"/>
<path d="M540 966 c5 -5 10 -13 10 -16 0 -11 -63 -11 -70 0 -5 7 -11 6 -20 -5
-11 -13 -6 -15 47 -15 46 0 60 3 60 15 0 8 -4 15 -9 15 -5 0 -7 4 -4 8 3 5 -2
9 -10 9 -10 0 -11 -4 -4 -11z"/>
<path d="M668 958 c-2 -6 -21 -12 -41 -13 -56 -3 -57 -15 -1 -16 57 -2 101 -1
129 1 15 1 16 3 5 7 -8 3 -18 11 -22 17 -5 8 -11 7 -20 -2 -17 -17 -39 -15
-32 3 4 8 2 15 -4 15 -6 0 -12 -5 -14 -12z"/>
<path d="M740 870 c0 -3 -53 -7 -117 -7 -236 -2 -233 -8 7 -13 l244 -5 3 -35
c1 -19 5 -44 7 -55 3 -11 5 -26 5 -32 1 -18 18 -16 25 3 3 8 2 12 -4 9 -9 -6
-15 48 -10 102 2 31 -9 47 -23 34 -7 -5 -37 -6 -75 -2 -34 4 -62 5 -62 1z"/>
<path d="M462 824 c-14 -16 -5 -18 17 -5 7 5 9 11 5 14 -5 3 -15 -1 -22 -9z"/>
<path d="M680 831 c0 -12 26 -32 33 -25 3 4 0 13 -8 20 -16 16 -25 18 -25 5z"/>
<path d="M727 825 c5 -14 43 -28 43 -17 0 4 -11 12 -24 18 -19 9 -23 9 -19 -1z"/>
<path d="M400 810 c8 -5 20 -10 25 -10 6 0 3 5 -5 10 -8 5 -19 10 -25 10 -5 0
-3 -5 5 -10z"/>
<path d="M606 811 c-3 -5 1 -11 9 -15 8 -3 15 -1 15 4 0 13 -18 22 -24 11z"/>
<path d="M28 778 l-28 -10 0 -144 0 -144 24 -6 c14 -3 29 -3 35 0 5 3 12 0 14
-6 4 -10 6 -10 6 0 1 9 29 12 105 12 96 0 104 -1 109 -21 5 -17 3 -18 -10 -7
-18 14 -93 19 -93 6 0 -4 -9 -3 -19 4 -15 9 -22 8 -36 -6 -10 -9 -14 -20 -10
-24 4 -4 10 -1 12 5 3 8 14 11 29 7 13 -3 36 -2 52 4 25 9 28 8 27 -11 -2 -28
-43 -59 -69 -51 -21 6 -21 6 -1 -10 19 -15 19 -15 -13 -16 -20 0 -31 -4 -27
-10 3 -5 -3 -10 -14 -10 -12 0 -21 -5 -21 -11 0 -5 6 -7 12 -3 8 5 7 0 -2 -11
-11 -14 -12 -19 -2 -22 23 -8 12 -20 -18 -18 -16 1 -30 -2 -30 -7 0 -5 -4 -6
-10 -3 -6 3 -10 1 -10 -4 0 -6 -5 -11 -11 -11 -5 0 -7 5 -4 10 3 6 -1 10 -9
10 -12 0 -16 -10 -16 -34 0 -32 3 -35 32 -39 l33 -4 -32 -1 -33 -2 0 -95 0
-95 665 0 665 0 0 94 c0 66 -4 96 -12 99 -10 4 -10 6 0 6 8 1 12 17 12 48 0
37 -3 44 -12 35 -14 -14 -68 -16 -68 -3 0 5 7 11 15 15 20 7 19 36 -1 36 -9 0
-23 -8 -31 -17 -14 -17 -14 -17 -9 -1 6 20 -10 25 -17 6 -4 -8 -6 -9 -6 -2 -1
6 6 17 14 24 22 18 18 32 -5 20 -11 -6 -49 -9 -85 -7 -35 2 -62 0 -59 -4 2 -4
-6 -5 -18 -1 -20 5 -21 3 -10 -11 10 -12 19 -14 38 -7 23 9 24 8 23 -28 0 -20
-3 -31 -6 -24 -4 10 -8 10 -21 0 -13 -11 -15 -10 -9 4 5 14 1 18 -15 18 -15 0
-18 -3 -10 -13 7 -8 7 -18 2 -27 -8 -12 -10 -10 -10 8 0 13 -4 21 -9 17 -5 -3
-17 2 -25 11 -16 16 -20 12 -17 -17 1 -13 -7 -15 -44 -14 -25 1 -48 5 -51 8
-3 3 -19 1 -35 -3 -17 -5 -29 -5 -29 0 0 5 -8 6 -17 3 -12 -5 -15 -2 -11 8 4
10 -1 15 -13 16 -11 1 -17 -2 -14 -8 9 -14 -25 -11 -40 5 -20 20 -10 25 41 19
27 -3 44 0 44 6 0 6 -6 11 -12 11 -8 0 -5 7 6 15 17 13 18 15 3 15 -26 0 -20
17 8 24 24 6 37 46 15 46 -5 0 -10 -4 -10 -10 0 -5 -7 -10 -15 -10 -8 0 -15 9
-15 20 0 15 -7 20 -26 20 -14 0 -22 -4 -19 -10 3 -5 0 -7 -9 -4 -8 3 -23 1
-34 -5 -14 -7 -28 -7 -51 2 -24 9 -33 9 -43 -1 -9 -9 -9 -12 3 -12 10 0 11 -2
2 -8 -18 -11 -24 -89 -8 -96 7 -2 16 2 19 10 9 23 7 36 -4 29 -5 -3 -10 1 -10
9 0 20 16 21 24 1 3 -8 10 -15 16 -15 6 0 8 5 5 10 -3 6 -2 10 3 10 6 0 13 -8
16 -17 7 -17 -9 -33 -31 -33 -16 0 -16 -6 -3 -31 6 -10 17 -19 25 -19 13 0 13
-4 3 -19 -13 -21 -30 -19 -22 2 3 10 -11 12 -61 11 -44 -2 -65 1 -66 9 -1 7
-2 27 -3 46 -1 33 -3 34 -44 38 -25 2 -50 -1 -58 -8 -9 -7 -18 -8 -26 -2 -7 6
-24 13 -36 16 -20 5 -23 2 -19 -14 3 -10 1 -19 -4 -19 -5 0 -9 9 -9 20 0 13
-5 18 -14 14 -8 -3 -12 -13 -9 -22 4 -14 3 -15 -5 -2 -8 10 -8 18 -1 27 6 7 8
17 4 23 -3 5 -1 10 5 10 6 0 13 -7 16 -15 5 -12 9 -13 20 -4 8 7 17 9 20 6 3
-3 17 -2 30 3 15 6 24 6 24 0 0 -6 -7 -10 -17 -10 -9 0 -14 -3 -10 -6 9 -10
157 -10 157 -1 0 5 8 6 19 2 13 -4 20 0 24 14 3 14 -1 22 -14 26 -11 4 -26 19
-34 35 -15 28 -15 28 -105 26 -49 -1 -90 2 -90 6 0 6 197 14 232 9 3 0 97 -1
208 -1 l202 -1 -5 -25 c-4 -25 7 -34 16 -11 4 9 8 8 16 -3 8 -11 11 -12 11 -2
0 9 7 11 19 7 11 -3 22 -1 26 5 4 6 -7 10 -29 10 -20 0 -36 5 -36 11 0 5 4 8
9 4 19 -11 305 -4 317 8 5 5 -312 16 -492 17 -73 1 -155 4 -183 9 -28 4 -51 5
-51 1 0 -4 -6 -7 -12 -7 -7 0 -116 -4 -243 -8 -126 -4 -251 -8 -277 -10 l-48
-4 0 65 0 64 120 0 120 0 0 40 c0 38 2 40 31 40 18 0 28 4 24 10 -4 6 -11 8
-16 5 -5 -4 -9 1 -9 11 0 11 -6 15 -20 11 -13 -3 -20 0 -20 9 0 19 -27 29 -43
16 -13 -11 -107 2 -116 17 -8 10 -29 10 -63 -1z m299 -307 c0 -11 -6 -17 -14
-14 -16 6 -17 20 0 26 6 3 13 6 14 6 1 1 1 -8 0 -18z m208 -42 c4 -10 13 -19
21 -19 8 0 14 -4 14 -10 0 -12 -20 -13 -35 -2 -10 7 -35 56 -35 69 0 12 30
-20 35 -38z m-168 25 c-3 -3 -12 -4 -19 -1 -8 3 -5 6 6 6 11 1 17 -2 13 -5z
m127 -10 c20 -19 20 -31 1 -31 -8 0 -15 6 -15 13 0 7 -8 10 -20 7 -11 -3 -20
-1 -20 5 0 6 -8 13 -17 15 -10 3 -1 5 19 6 21 1 43 -6 52 -15z m-76 -10 c12
-8 22 -21 22 -27 0 -9 -3 -8 -8 1 -5 8 -16 10 -27 6 -13 -5 -16 -4 -11 4 5 8
2 10 -9 6 -11 -5 -14 -2 -9 10 8 20 14 20 42 0z m-64 -19 c-4 -8 -12 -15 -20
-15 -20 0 -17 18 4 23 9 3 18 5 19 6 1 0 0 -6 -3 -14z m425 -10 c-2 -2 -22 -6
-44 -8 l-40 -6 40 18 c22 10 42 14 44 9 1 -5 1 -11 0 -13z m-102 -2 c-11 -10
-58 -13 -52 -2 4 5 18 9 32 9 15 0 23 -3 20 -7z m-407 -17 c0 -8 -4 -17 -9
-20 -5 -3 -7 -14 -4 -24 3 -13 -2 -18 -16 -18 -11 0 -18 3 -16 6 2 4 -11 6
-30 6 -18 -1 -31 -5 -27 -10 3 -5 0 -6 -7 -2 -22 14 0 26 43 22 39 -4 43 -3
41 17 0 12 0 25 2 30 7 13 23 8 23 -7z m425 -16 c3 -5 1 -10 -4 -10 -6 0 -11
5 -11 10 0 6 2 10 4 10 3 0 8 -4 11 -10z m27 -12 c-7 -7 -12 -8 -12 -2 0 14
12 26 19 19 2 -3 -1 -11 -7 -17z m-337 -18 c3 -5 -3 -10 -14 -10 -12 0 -21 5
-21 10 0 6 6 10 14 10 8 0 18 -4 21 -10z m61 -5 c-19 -14 -19 -16 -2 -34 20
-22 44 -18 42 6 0 9 5 17 12 19 7 1 9 0 4 -2 -5 -3 -7 -16 -4 -31 3 -18 1 -24
-7 -19 -6 4 -11 2 -11 -4 0 -6 -13 -2 -29 9 -16 12 -34 21 -40 21 -18 0 -12
18 11 34 28 20 50 20 24 1z m258 -1 c3 -8 2 -12 -4 -9 -6 3 -10 10 -10 16 0
14 7 11 14 -7z m433 -41 c-3 -10 -5 -2 -5 17 0 19 2 27 5 18 2 -10 2 -26 0
-35z m-854 10 c-5 -11 -3 -14 6 -8 7 4 28 10 47 12 27 4 34 1 34 -12 0 -13 6
-15 31 -10 24 6 30 4 27 -6 -4 -11 -22 -13 -74 -11 -38 2 -73 8 -78 12 -5 5
-15 2 -23 -6 -15 -14 -58 -10 -77 7 -6 5 -18 9 -27 9 -10 0 -21 5 -25 12 -4 7
-3 8 4 4 7 -4 12 -3 12 2 0 12 103 10 112 -3 4 -5 10 -2 14 8 3 9 10 15 15 12
4 -3 5 -13 2 -22z m406 8 c7 -5 10 -14 7 -20 -4 -6 -2 -11 4 -11 6 0 8 -5 4
-12 -6 -9 -9 -9 -12 0 -2 7 -10 12 -17 12 -14 0 -27 25 -18 34 8 8 15 7 32 -3z
m581 5 c0 -3 -4 -8 -10 -11 -5 -3 -10 -1 -10 4 0 6 5 11 10 11 6 0 10 -2 10
-4z m-1100 -48 c0 -6 -3 -8 -7 -5 -3 4 -12 -1 -19 -11 -12 -16 -12 -16 -9 3 2
11 4 21 4 23 3 8 31 0 31 -10z m184 -29 c-3 -5 -10 -7 -15 -3 -5 3 -7 10 -3
15 3 5 10 7 15 3 5 -3 7 -10 3 -15z m436 8 c0 -5 -8 -7 -19 -4 -10 2 -25 1
-33 -4 -10 -5 -15 -4 -15 5 0 8 13 13 34 13 18 0 33 -5 33 -10z m398 -12 c0
-14 -4 -25 -9 -25 -5 0 -9 9 -9 21 0 13 -4 18 -12 13 -7 -4 -8 -3 -4 4 13 21
34 13 34 -13z m85 19 c8 -8 -3 -34 -15 -34 -6 0 -6 6 1 14 9 11 9 15 -1 19 -7
3 -8 6 -2 6 6 1 13 -2 17 -5z m-768 -14 c17 -8 16 -8 -7 -7 -16 1 -28 5 -28 9
0 10 9 9 35 -2z m538 -27 c-7 -2 -19 -2 -25 0 -7 3 -2 5 12 5 14 0 19 -2 13
-5z m-915 -20 c-10 -2 -28 -2 -40 0 -13 2 -5 4 17 4 22 1 32 -1 23 -4z m410 2
c-6 -7 -379 -7 -386 -1 -3 3 84 6 193 6 109 0 196 -2 193 -5z m55 -2 c-7 -2
-21 -2 -30 0 -10 3 -4 5 12 5 17 0 24 -2 18 -5z m265 0 c-32 -2 -84 -2 -115 0
-32 2 -6 3 57 3 63 0 89 -1 58 -3z m145 0 c-7 -2 -19 -2 -25 0 -7 3 -2 5 12 5
14 0 19 -2 13 -5z m80 0 c-7 -2 -19 -2 -25 0 -7 3 -2 5 12 5 14 0 19 -2 13 -5z
m160 0 c-13 -2 -33 -2 -45 0 -13 2 -3 4 22 4 25 0 35 -2 23 -4z m-693 -25 c0
-4 -31 -7 -70 -6 -38 0 -67 4 -65 9 7 10 135 8 135 -3z m480 -3 c0 -8 -2 -15
-4 -15 -2 0 -6 7 -10 15 -3 8 -1 15 4 15 6 0 10 -7 10 -15z m43 8 c-7 -2 -19
-2 -25 0 -7 3 -2 5 12 5 14 0 19 -2 13 -5z m-886 -9 c-3 -3 -12 -4 -19 -1 -8
3 -5 6 6 6 11 1 17 -2 13 -5z m133 2 c0 -2 -7 -7 -16 -10 -8 -3 -12 -2 -9 4 6
10 25 14 25 6z m555 -6 c-28 -12 -37 -12 -30 0 3 6 16 10 28 9 21 0 21 -1 2
-9z m359 -15 c-7 -17 -30 -20 -38 -6 -4 5 0 12 6 14 25 10 37 7 32 -8z m-1044
-5 c0 -5 -5 -10 -11 -10 -5 0 -7 5 -4 10 3 6 8 10 11 10 2 0 4 -4 4 -10z m973
3 c-7 -2 -19 -2 -25 0 -7 3 -2 5 12 5 14 0 19 -2 13 -5z"/>
<path d="M180 299 c0 -5 5 -7 10 -4 6 3 10 8 10 11 0 2 -4 4 -10 4 -5 0 -10
-5 -10 -11z"/>
<path d="M215 290 c-16 -7 -17 -9 -3 -9 9 -1 20 4 23 9 7 11 7 11 -20 0z"/>
<path d="M330 290 c-12 -8 -11 -10 8 -10 12 0 22 5 22 10 0 13 -11 13 -30 0z"/>
<path d="M667 779 c7 -7 15 -10 18 -7 3 3 -2 9 -12 12 -14 6 -15 5 -6 -5z"/>
<path d="M700 770 c0 -5 5 -10 10 -10 6 0 10 5 10 10 0 6 -4 10 -10 10 -5 0
-10 -4 -10 -10z"/>
<path d="M610 730 c0 -13 7 -20 20 -20 13 0 20 7 20 20 0 13 -7 20 -20 20 -13
0 -20 -7 -20 -20z"/>
<path d="M680 740 c0 -5 5 -10 11 -10 5 0 7 5 4 10 -3 6 -8 10 -11 10 -2 0 -4
-4 -4 -10z"/>
<path d="M765 740 c-3 -5 -1 -10 4 -10 6 0 11 5 11 10 0 6 -2 10 -4 10 -3 0
-8 -4 -11 -10z"/>
<path d="M508 733 c7 -3 16 -2 19 1 4 3 -2 6 -13 5 -11 0 -14 -3 -6 -6z"/>
<path d="M568 733 c7 -3 16 -2 19 1 4 3 -2 6 -13 5 -11 0 -14 -3 -6 -6z"/>
<path d="M860 710 c0 -5 5 -10 11 -10 5 0 7 5 4 10 -3 6 -8 10 -11 10 -2 0 -4
-4 -4 -10z"/>
<path d="M990 658 c0 -21 5 -38 10 -38 13 0 13 40 0 60 -7 11 -10 5 -10 -22z"/>
<path d="M605 640 c-3 -5 1 -10 9 -10 9 0 16 5 16 10 0 6 -4 10 -9 10 -6 0
-13 -4 -16 -10z"/>
<path d="M951 634 c0 -11 3 -14 6 -6 3 7 2 16 -1 19 -3 4 -6 -2 -5 -13z"/>
<path d="M1207 603 c-4 -3 -7 -26 -7 -50 l0 -43 65 0 65 0 0 32 c0 17 -3 29
-6 25 -3 -3 -18 5 -32 19 -25 23 -71 32 -85 17z"/>
<path d="M52 533 c4 -39 38 -41 38 -2 0 23 -5 29 -21 29 -16 0 -20 -5 -17 -27z"/>
<path d="M119 558 c-9 -27 -3 -48 13 -48 13 0 18 7 18 25 0 16 -6 25 -15 25
-8 0 -15 -1 -16 -2z"/>
<path d="M420 536 c0 -9 9 -14 20 -13 11 1 20 7 20 14 0 7 -9 13 -20 13 -11 0
-20 -6 -20 -14z"/>
<path d="M490 534 c0 -8 5 -12 10 -9 6 3 10 10 10 16 0 5 -4 9 -10 9 -5 0 -10
-7 -10 -16z"/>
<path d="M543 543 c-13 -2 -23 -8 -23 -12 0 -13 53 -7 58 7 2 6 0 11 -5 11 -4
-1 -18 -4 -30 -6z"/>
<path d="M730 535 c0 -10 9 -14 25 -13 14 1 25 8 25 15 0 7 -11 13 -25 13 -15
0 -25 -6 -25 -15z"/>
<path d="M630 469 c0 -5 5 -7 10 -4 6 3 10 8 10 11 0 2 -4 4 -10 4 -5 0 -10
-5 -10 -11z"/>
<path d="M683 465 c1 -5 -6 -9 -17 -7 -15 3 -16 1 -5 -11 8 -8 16 -11 19 -7 3
4 24 11 48 15 23 4 39 11 36 16 -7 12 -83 7 -81 -6z"/>
<path d="M780 470 c0 -5 11 -10 25 -10 14 0 28 0 32 -1 4 0 9 4 11 10 2 7 -11
11 -32 11 -20 0 -36 -4 -36 -10z"/>
<path d="M90 459 c0 -6 -9 -8 -21 -4 -11 4 -32 4 -45 1 -22 -6 -25 -11 -23
-51 3 -44 12 -58 22 -32 4 9 6 9 6 -1 1 -7 5 -10 11 -7 5 3 10 1 10 -4 0 -6
-5 -11 -11 -11 -6 0 -8 -9 -4 -20 5 -15 1 -22 -16 -29 -23 -8 -23 -8 -3 -19
28 -15 43 -2 46 41 1 20 7 37 12 37 6 0 5 5 -1 11 -13 13 -7 35 19 61 20 20
24 38 8 38 -5 0 -10 -5 -10 -11z m-50 -59 c-9 -6 -17 -5 -22 3 -4 7 -3 14 2
15 6 2 7 9 4 15 -4 7 2 4 12 -6 16 -15 17 -19 4 -27z"/>
<path d="M1089 457 c-25 -7 -29 -11 -19 -22 10 -12 9 -15 -9 -15 -11 0 -21 -3
-21 -7 0 -5 -20 -7 -44 -7 -42 2 -44 1 -33 -17 7 -11 19 -17 29 -14 12 5 15 1
11 -14 -3 -12 -11 -17 -19 -14 -8 3 -14 0 -14 -6 0 -6 -4 -11 -10 -11 -5 0 -7
7 -4 15 4 8 1 15 -6 15 -6 0 -8 -4 -5 -10 3 -5 2 -10 -3 -10 -5 0 -9 -6 -9
-14 0 -16 34 -29 42 -15 3 4 12 6 20 2 11 -4 17 4 21 26 5 24 12 31 29 31 15
0 31 13 49 40 14 22 28 40 30 40 2 0 10 -8 17 -17 12 -15 12 -16 -1 -8 -12 7
-13 6 -3 -7 7 -8 10 -18 6 -21 -3 -4 2 -9 11 -13 9 -3 13 -10 10 -15 -3 -5 4
-9 15 -9 19 0 21 6 21 53 l0 52 -40 0 c-22 0 -54 -4 -71 -8z"/>
<path d="M1210 460 c0 -5 5 -10 10 -10 6 0 10 5 10 10 0 6 -4 10 -10 10 -5 0
-10 -4 -10 -10z"/>
<path d="M936 446 c3 -8 13 -17 22 -21 13 -5 13 -2 -3 15 -21 24 -26 25 -19 6z"/>
<path d="M1030 440 c0 -5 5 -10 11 -10 5 0 7 5 4 10 -3 6 -8 10 -11 10 -2 0
-4 -4 -4 -10z"/>
<path d="M220 430 c0 -5 5 -10 11 -10 5 0 7 5 4 10 -3 6 -8 10 -11 10 -2 0 -4
-4 -4 -10z"/>
<path d="M156 415 c-8 -9 -20 -14 -27 -13 -6 2 -13 -2 -16 -9 -6 -16 24 -10
46 9 11 9 27 18 38 21 15 4 15 5 -4 6 -12 0 -28 -6 -37 -14z"/>
<path d="M1210 422 c0 -5 16 -9 36 -10 43 -2 40 7 -5 14 -17 3 -31 1 -31 -4z"/>
<path d="M853 413 c4 -3 0 -17 -8 -30 -9 -13 -11 -23 -5 -23 5 0 10 -4 10 -10
0 -5 -5 -9 -11 -7 -6 1 -13 -9 -15 -22 -4 -21 -3 -22 13 -10 15 12 16 12 10
-3 -3 -10 -2 -18 3 -18 6 0 10 5 10 10 0 6 8 10 18 10 14 0 15 -2 2 -10 -8 -5
-10 -10 -5 -10 17 1 49 29 41 37 -4 4 -16 8 -28 8 -14 0 -22 8 -24 22 -3 17 0
21 14 16 14 -5 13 -3 -3 10 -14 12 -16 16 -6 17 8 0 25 -10 38 -22 13 -12 23
-16 23 -10 0 7 -6 12 -12 13 -7 0 -4 4 7 8 17 7 14 10 -20 20 -46 13 -61 14
-52 4z"/>
<path d="M1315 400 c-3 -5 -1 -10 4 -10 6 0 11 5 11 10 0 6 -2 10 -4 10 -3 0
-8 -4 -11 -10z"/>
<path d="M1118 373 c7 -3 16 -2 19 1 4 3 -2 6 -13 5 -11 0 -14 -3 -6 -6z"/>
<path d="M543 353 c-15 -5 -18 -43 -4 -43 15 0 42 31 36 41 -7 10 -13 10 -32
2z"/>
<path d="M1016 314 c-10 -25 1 -29 14 -5 6 12 7 21 1 21 -5 0 -12 -7 -15 -16z"/>
<path d="M73 300 c1 -11 2 -20 4 -20 1 0 7 9 13 20 8 16 8 20 -4 20 -9 0 -14
-8 -13 -20z"/>
<path d="M1298 313 c6 -2 18 -2 25 0 6 3 1 5 -13 5 -14 0 -19 -2 -12 -5z"/>
<path d="M599 307 c-9 -25 -4 -35 16 -33 24 1 23 21 -1 30 -8 3 -14 4 -15 3z"/>
<path d="M945 290 c-3 -5 1 -10 10 -10 9 0 13 5 10 10 -3 6 -8 10 -10 10 -2 0
-7 -4 -10 -10z"/>
</g>
</svg>
